<svg width="29" height="29" viewBox="0 0 29 29" fill="none" xmlns="http://www.w3.org/2000/svg">
<rect width="29" height="29" rx="5" fill="#B9EEFF"/>
<path d="M14.4953 7.5C17.3948 7.5 19.7453 9.85051 19.7453 12.75V15.9L20.6951 17.0397C21.5092 18.0167 20.8145 19.5 19.5427 19.5H9.44787C8.17611 19.5 7.48138 18.0167 8.29553 17.0397L9.2453 15.9V12.75C9.2453 9.85051 11.5958 7.5 14.4953 7.5ZM14.4953 7.5V6M7.03424 10.2019C6.93027 9.51962 7.06474 8.82236 7.41496 8.22766C7.76518 7.63296 8.30973 7.1772 8.95683 6.93721M21.9658 10.2019C22.0697 9.51962 21.9353 8.82236 21.5851 8.22766C21.2348 7.63296 20.6903 7.1772 20.0432 6.93721M17.5 19.5C17.5 19.894 17.4224 20.2841 17.2716 20.648C17.1209 21.012 16.8999 21.3427 16.6213 21.6213C16.3427 21.8999 16.012 22.1209 15.648 22.2716C15.2841 22.4224 14.894 22.5 14.5 22.5C14.106 22.5 13.7159 22.4224 13.352 22.2716C12.988 22.1209 12.6573 21.8999 12.3787 21.6213C12.1001 21.3427 11.8791 21.012 11.7284 20.648C11.5776 20.2841 11.5 19.894 11.5 19.5H17.5Z" stroke="#1684A8" stroke-width="1.5" stroke-linecap="round" stroke-linejoin="round"/>
</svg>
