<svg width="29" height="29" viewBox="0 0 29 29" fill="none" xmlns="http://www.w3.org/2000/svg">
<rect width="29" height="29" rx="5" fill="#B9EEFF"/>
<path d="M17.9617 16.1131C18.9967 15.0224 19.6561 13.4818 19.6561 12.011C19.6561 9.33822 17.4904 7.17126 14.8167 7.17126C12.1439 7.17126 9.97766 9.33754 9.97766 12.011C9.97766 12.6721 10.1165 13.3447 10.3576 13.9868C10.9522 15.3265 12.1195 16.367 13.5978 16.7449C13.8908 16.3831 14.3325 16.1662 14.8168 16.1662C15.6855 16.1662 16.3927 16.8728 16.3927 17.7418C16.3927 18.6109 15.6855 19.3169 14.8168 19.3169C14.1983 19.3169 13.6512 18.9561 13.3946 18.4174C12.1239 18.1378 11.0094 17.4999 10.1434 16.6244C8.23669 17.4391 7 18.7363 7 20.2009C7 22.6682 22.6341 22.6682 22.6341 20.2009C22.6341 18.3731 20.7121 16.8046 17.9617 16.1131Z" fill="#1684A8"/>
<path d="M13.8188 17.9311C13.9082 18.4024 14.3202 18.7589 14.8163 18.7589C15.3783 18.7589 15.8337 18.3032 15.8337 17.7417C15.8337 17.1803 15.3783 16.7245 14.817 16.7245C14.3851 16.7245 14.0186 16.9946 13.8708 17.3744C11.3147 16.9247 9.36552 14.6932 9.36552 12.0103C9.36552 9.00424 11.8114 6.55841 14.8169 6.55841C17.8237 6.55841 20.2691 9.00424 20.2691 12.0103H20.8269C20.8269 8.69663 18.1309 6 14.8169 6C11.5032 6 8.80701 8.69605 8.80701 12.0103C8.80652 14.9842 10.9797 17.4533 13.8188 17.9311Z" fill="#1684A8"/>
</svg>
