<svg width="29" height="29" viewBox="0 0 29 29" fill="none" xmlns="http://www.w3.org/2000/svg">
<rect width="29" height="29" rx="5" fill="#B9EEFF"/>
<path d="M9.04922 13.1634C8.24854 13.1637 7.46575 12.9265 6.79988 12.4819C6.13401 12.0373 5.61496 11.4051 5.30841 10.6655C5.00186 9.92579 4.92157 9.11181 5.0777 8.3265C5.23383 7.54119 5.61936 6.81982 6.18553 6.25366C6.75169 5.68749 7.47306 5.30196 8.25837 5.14583C9.04368 4.9897 9.85765 5.06999 10.5973 5.37655C11.337 5.6831 11.9691 6.20214 12.4138 6.86801C12.8584 7.53388 13.0956 8.31667 13.0953 9.11735C13.0944 10.1903 12.6679 11.2191 11.9094 11.978C11.1508 12.7368 10.1222 13.1621 9.04922 13.1634ZM9.04922 10.6552C9.35338 10.6552 9.65071 10.565 9.90362 10.396C10.1565 10.2271 10.3536 9.98688 10.47 9.70587C10.5864 9.42486 10.6169 9.11564 10.5575 8.81732C10.4982 8.51901 10.3517 8.24498 10.1367 8.02991C9.92158 7.81483 9.64756 7.66836 9.34924 7.60902C9.05092 7.54968 8.74171 7.58014 8.4607 7.69654C8.17969 7.81293 7.9395 8.01005 7.77052 8.26295C7.60153 8.51585 7.51134 8.81319 7.51134 9.11735C7.51134 9.52522 7.67337 9.91639 7.96177 10.2048C8.25018 10.4932 8.64135 10.6552 9.04922 10.6552ZM21.6408 7.49861L10.7123 23.8588C10.4646 24.2008 10.094 24.4335 9.67838 24.5081C9.26273 24.5827 8.83435 24.4934 8.48314 24.2589C8.13194 24.0244 7.88522 23.663 7.79478 23.2505C7.70433 22.838 7.77719 22.4065 7.99807 22.0466L18.9265 5.68487C19.173 5.33925 19.5444 5.10318 19.9619 5.02672C20.3795 4.95025 20.8104 5.03939 21.1634 5.27525C21.5163 5.5111 21.7636 5.87513 21.8527 6.29017C21.9418 6.70522 21.8658 7.13865 21.6408 7.49861ZM24.6214 20.523C24.6217 21.3237 24.3846 22.1065 23.9399 22.7723C23.4953 23.4382 22.8631 23.9573 22.1235 24.2638C21.3838 24.5704 20.5698 24.6507 19.7845 24.4945C18.9992 24.3384 18.2778 23.9529 17.7117 23.3867C17.1455 22.8205 16.76 22.0992 16.6039 21.3139C16.4477 20.5285 16.528 19.7146 16.8346 18.9749C17.1411 18.2352 17.6602 17.6031 18.326 17.1585C18.9919 16.7138 19.7747 16.4767 20.5754 16.477C21.6483 16.4778 22.6771 16.9043 23.436 17.6629C24.1948 18.4214 24.6202 19.45 24.6214 20.523ZM22.1132 20.523C22.1132 20.2188 22.0231 19.9215 21.8541 19.6686C21.6851 19.4157 21.4449 19.2186 21.1639 19.1022C20.8829 18.9858 20.5737 18.9553 20.2753 19.0147C19.977 19.074 19.703 19.2205 19.4879 19.4356C19.2728 19.6506 19.1264 19.9247 19.067 20.223C19.0077 20.5213 19.0382 20.8305 19.1546 21.1115C19.271 21.3925 19.4681 21.6327 19.721 21.8017C19.9739 21.9707 20.2712 22.0609 20.5754 22.0609C20.7773 22.0609 20.9773 22.0211 21.1639 21.9438C21.3505 21.8665 21.52 21.7533 21.6628 21.6105C21.8056 21.4676 21.9189 21.2981 21.9962 21.1115C22.0735 20.9249 22.1132 20.725 22.1132 20.523Z" fill="#1684A8"/>
</svg>
