<svg width="29" height="29" viewBox="0 0 29 29" fill="none" xmlns="http://www.w3.org/2000/svg">
<rect width="29" height="29" rx="5" fill="#B9EEFF"/>
<path d="M5 13.2408C5 9.68788 5 7.91145 5.41947 7.31382C5.83892 6.71618 7.50924 6.14443 10.8499 5.0009L11.4864 4.78305C13.2278 4.18696 14.0984 3.88892 15 3.88892C15.9016 3.88892 16.7722 4.18696 18.5137 4.78305L19.1501 5.0009C22.4908 6.14443 24.1611 6.71618 24.5806 7.31382C25 7.91145 25 9.68788 25 13.2408C25 13.7774 25 14.3594 25 14.9905C25 21.2549 20.29 24.295 17.3349 25.5859C16.5333 25.936 16.1326 26.1111 15 26.1111C13.8674 26.1111 13.4667 25.936 12.6651 25.5859C9.70996 24.295 5 21.2549 5 14.9905C5 14.3594 5 13.7774 5 13.2408Z" stroke="#1684A8" stroke-width="2"/>
<path d="M18.3333 13.75H17.6667V12C17.6667 10.7166 16.4667 9.66663 15 9.66663C13.5333 9.66663 12.3333 10.7166 12.3333 12V13.75H11.6667C11.3333 13.75 11 14.0416 11 14.3333V18.4167C11 18.7083 11.3333 19 11.6667 19H18.3333C18.6667 19 19 18.7083 19 18.4167V14.3333C19 14.0416 18.6667 13.75 18.3333 13.75ZM15.6667 17.8333H14.3333L14.6 16.55C14.2667 16.4333 14 16.0833 14 15.7917C14 15.325 14.4667 14.9166 15 14.9166C15.5333 14.9166 16 15.325 16 15.7917C16 16.1417 15.8 16.4333 15.4 16.55L15.6667 17.8333ZM16.3333 13.75H13.6667V12C13.6667 11.3583 14.2667 10.8333 15 10.8333C15.7333 10.8333 16.3333 11.3583 16.3333 12V13.75Z" fill="#1684A8"/>
</svg>
