<svg width="29" height="29" viewBox="0 0 29 29" fill="none" xmlns="http://www.w3.org/2000/svg">
<rect width="29" height="29" rx="5" fill="#B9EEFF"/>
<path d="M5 13.2408C5 9.68788 5 7.91145 5.41947 7.31382C5.83892 6.71618 7.50924 6.14443 10.8499 5.0009L11.4864 4.78305C13.2278 4.18696 14.0984 3.88892 15 3.88892C15.9016 3.88892 16.7722 4.18696 18.5137 4.78305L19.1501 5.0009C22.4908 6.14443 24.1611 6.71618 24.5806 7.31382C25 7.91145 25 9.68788 25 13.2408C25 13.7774 25 14.3594 25 14.9905C25 21.2549 20.29 24.295 17.3349 25.5859C16.5333 25.936 16.1326 26.1111 15 26.1111C13.8674 26.1111 13.4667 25.936 12.6651 25.5859C9.70996 24.295 5 21.2549 5 14.9905C5 14.3594 5 13.7774 5 13.2408Z" stroke="#1684A8" stroke-width="2"/>
<path d="M12 15.3335L14.3335 17.667L19 13" stroke="#1684A8" stroke-width="2" stroke-linecap="round" stroke-linejoin="round"/>
</svg>
